<?xml version="1.0" encoding="utf-8"?>
<!-- Generator: Adobe Illustrator 30.1.0, SVG Export Plug-In . SVG Version: 9.03 Build 0)  -->
<svg version="1.1" id="Capa_1" xmlns="http://www.w3.org/2000/svg" xmlns:xlink="http://www.w3.org/1999/xlink" x="0px" y="0px"
	 viewBox="0 0 16 16" style="enable-background:new 0 0 16 16;" xml:space="preserve">
<path d="M13.36,11.24C15.06,9.72,16,8,16,8s-3-5.5-8-5.5c-0.96,0-1.91,0.2-2.79,0.59l0.77,0.77C6.63,3.62,7.31,3.5,8,3.5
	c2.12,0,3.88,1.17,5.17,2.46c0.62,0.62,1.18,1.31,1.66,2.04c-0.06,0.09-0.12,0.18-0.19,0.29c-0.34,0.48-0.83,1.12-1.47,1.76
	c-0.16,0.17-0.34,0.33-0.52,0.49L13.36,11.24z"/>
<path d="M11.3,9.18C11.95,7.36,11,5.35,9.18,4.7c-0.76-0.27-1.59-0.27-2.36,0l0.82,0.82c1.37-0.2,2.63,0.75,2.83,2.12
	c0.03,0.23,0.03,0.47,0,0.71L11.3,9.18z M8.35,10.47l0.82,0.82C7.36,11.95,5.35,11,4.7,9.18c-0.27-0.76-0.27-1.59,0-2.36l0.82,0.82
	c-0.2,1.37,0.75,2.63,2.12,2.83C7.88,10.51,8.12,10.51,8.35,10.47"/>
<path d="M3.35,5.47C3.17,5.63,3,5.79,2.83,5.96C2.21,6.58,1.65,7.26,1.17,8l0.2,0.29C1.7,8.77,2.2,9.41,2.83,10.04
	C4.12,11.33,5.88,12.5,8,12.5c0.72,0,1.39-0.13,2.02-0.36l0.77,0.77C9.91,13.3,8.96,13.5,8,13.5C3,13.5,0,8,0,8s0.94-1.72,2.64-3.24
	L3.35,5.47L3.35,5.47z M13.65,14.35l-12-12l0.71-0.71l12,12L13.65,14.35z"/>
</svg>
