<?xml version="1.0" encoding="utf-8"?>
<!-- Generator: Adobe Illustrator 30.1.0, SVG Export Plug-In . SVG Version: 9.03 Build 0)  -->
<svg version="1.1" id="Capa_1" xmlns="http://www.w3.org/2000/svg" xmlns:xlink="http://www.w3.org/1999/xlink" x="0px" y="0px"
	 viewBox="0 0 16 16" style="enable-background:new 0 0 16 16;" xml:space="preserve">
<path d="M16,8c0,0-3-5.5-8-5.5S0,8,0,8s3,5.5,8,5.5S16,8,16,8 M1.17,8c0.48-0.74,1.04-1.42,1.66-2.04C4.12,4.67,5.88,3.5,8,3.5
	s3.88,1.17,5.17,2.46c0.62,0.62,1.18,1.31,1.66,2.04c-0.06,0.09-0.12,0.18-0.19,0.29c-0.34,0.48-0.83,1.12-1.47,1.76
	C11.88,11.33,10.12,12.5,8,12.5s-3.88-1.17-5.17-2.46C2.21,9.42,1.65,8.74,1.17,8L1.17,8z"/>
<path d="M8,5.5C6.62,5.5,5.5,6.62,5.5,8s1.12,2.5,2.5,2.5s2.5-1.12,2.5-2.5S9.38,5.5,8,5.5 M4.5,8c0-1.93,1.57-3.5,3.5-3.5
	s3.5,1.57,3.5,3.5S9.93,11.5,8,11.5S4.5,9.93,4.5,8"/>
</svg>
